<svg width="39" height="53" viewBox="0 0 39 53" fill="none" xmlns="http://www.w3.org/2000/svg">
<g clip-path="url(#clip0_199_1178)">
<path d="M19.1377 1C29.1339 1 37.2754 9.29444 37.2754 19.5732C37.2754 21.4849 37.1132 23.0028 36.6689 24.5371C36.2225 26.0787 35.4773 27.6847 34.2588 29.7568C31.797 33.9433 27.5496 39.7965 20.2764 50.5801C19.7226 51.3982 18.5527 51.3982 17.999 50.5801C10.7259 39.7966 6.47839 33.9433 4.0166 29.7568C2.79809 27.6847 2.05284 26.0787 1.60645 24.5371C1.16218 23.0028 1.00003 21.4849 1 19.5732C1 9.29449 9.14154 1.00008 19.1377 1ZM19.1377 10.417C14.1604 10.4171 10.1641 14.5382 10.1641 19.5732C10.1643 24.6081 14.1606 28.7284 19.1377 28.7285C24.1149 28.7285 28.1121 24.6081 28.1123 19.5732C28.1123 14.5382 24.115 10.417 19.1377 10.417Z" fill="#FF0000" stroke="black" stroke-width="2"/>
</g>
<defs>
<clipPath id="clip0_199_1178">
<rect width="38.2757" height="52.1941" fill="white"/>
</clipPath>
</defs>
</svg>
