<svg width="43" height="66" viewBox="0 0 43 66" fill="none" xmlns="http://www.w3.org/2000/svg">
<path d="M21.4971 17.5C26.13 17.5 30.472 19.648 33.2246 23.2793L41.4609 34.165L41.4629 34.167C42.3557 35.3401 42.1129 36.9971 40.8965 37.8877C39.6752 38.7818 37.9467 38.5237 37.0518 37.3369L37.0508 37.335L31.6416 30.1855L29.8438 27.8096V62.333C29.8438 63.7906 28.6395 65 27.1055 65C25.5714 65 24.3672 63.7906 24.3672 62.333V44C24.3672 42.4211 23.0591 41.167 21.4971 41.167C19.9353 41.1672 18.6279 42.4213 18.6279 44V62.333C18.6279 63.7906 17.4237 64.9999 15.8896 65C14.3556 65 13.1514 63.7906 13.1514 62.333V27.8096L11.3535 30.1855L5.94629 37.333C5.03782 38.5266 3.31764 38.78 2.09863 37.8877C0.887115 37.0007 0.646689 35.3437 1.53418 34.165L9.76953 23.2793L9.77051 23.2803C12.5231 19.6488 16.8641 17.5001 21.4971 17.5ZM21.4971 1C22.2276 1 22.9511 1.14127 23.625 1.41504C24.2988 1.68879 24.91 2.08986 25.4238 2.59375C25.9375 3.09758 26.3442 3.69493 26.6211 4.35059C26.8979 5.00621 27.04 5.70855 27.04 6.41699C27.04 7.12548 26.898 7.82775 26.6211 8.4834C26.3441 9.13915 25.9376 9.73637 25.4238 10.2402C24.9101 10.7441 24.2988 11.1442 23.625 11.418C22.9511 11.6917 22.2276 11.833 21.4971 11.833C20.7667 11.833 20.0439 11.6917 19.3701 11.418C18.6963 11.1442 18.0851 10.7441 17.5713 10.2402C17.0576 9.73639 16.651 9.13913 16.374 8.4834C16.0971 7.82775 15.9551 7.12548 15.9551 6.41699C15.9551 5.70853 16.0972 5.00623 16.374 4.35059C16.6509 3.6949 17.0576 3.09759 17.5713 2.59375C18.0851 2.08983 18.6963 1.68879 19.3701 1.41504C20.0439 1.14132 20.7667 1.00005 21.4971 1Z" fill="#FFEA00" stroke="black" stroke-width="2"/>
</svg>
